<?xml version="1.0" encoding="UTF-8"?>
<svg id="Layer_1" data-name="Layer 1" xmlns="http://www.w3.org/2000/svg" viewBox="0 0 582.19 155.92">
  <defs>
    <style>
      .cls-1 {
        fill: #f8f5eb;
      }
    </style>
  </defs>
  <g>
    <path class="cls-1" d="M138.02,100.4c.99.02,2.57.34,3.82-.45,1.13-.72,2.23-2.44,2.38-6.18.17-4.09-.22-6.51-.24-6.66-.99-6.31-4.26-13.07-9.31-27.25-5.26-14.76.91-26.4,7.78-34.03,1.62-1.8.4-4.53-2.2-4.61-2.6-.08-5.71.74-8.52,2.21-9.02,4.74-17.63,17.1-17.75,36.54,0,.24,0,.49,0,.71,0,.28,0,.5-.01.77-.13,20.95,9.68,33.77,19.36,37.72,2.11.86,4.15,1.21,4.68,1.22Z"/>
    <path class="cls-1" d="M154.42,67.24c4.1,11.35,1.56,22.67-1.68,30.74-.47,1.17.48,2.43,1.78,2.33.04,0,7.98.13,15.06-7.56,6.33-6.87,10.69-17.04,10.6-31.47,0-.26,0-1.24,0-1.48-.13-22.78-11.91-35.8-22.38-38.28-1.41-.33-2.87.36-3.46,1.64-4.81,10.61-5.7,28.06.08,44.07Z"/>
  </g>
  <g>
    <path class="cls-1" d="M20.92,98.81L-.12,22.79l18.98-.04,12.66,49.18,15.08-49.24,16.79-.04,15.15,49.17,12.45-49.23,18.69-.04-20.86,76.11-19.12.04-14.85-48.59-14.64,48.65-19.27.04Z"/>
    <path class="cls-1" d="M213.7,98.38l-20,.04-.21-94.35L213.48-.47l.22,98.86Z"/>
    <path class="cls-1" d="M239.56,39.05l-15.62.03-.04-16.79,15.62-.03-.04-18.29,19.99-4.57.05,22.81,21.61-.05.04,16.79-21.61.05.08,33.73c.02,7.15,2.79,9.78,10.53,9.76,3.8,0,6.72-.45,10.66-1.78l.04,16.35c-4.23,1.32-11.09,2.36-15.47,2.37-16.94.04-25.71-7.68-25.75-22.57l-.08-37.82Z"/>
    <path class="cls-1" d="M291.02,3.86l19.99-4.57.06,28.79c5.83-4.83,12.98-7.47,21.3-7.49,17.67-.04,30.1,12.34,30.14,30.16l.11,47.3-20,.04-.1-44.38c-.02-9.64-6.17-15.9-15.81-15.88-6.71.01-12.11,2.65-15.6,7.63l.12,52.71-20,.04-.21-94.35Z"/>
    <path class="cls-1" d="M415.18,99.39c-23.07.05-40.92-17.14-40.97-39.33-.05-22.05,17-39.46,39.04-39.51,21.61-.05,37.71,17.44,37.76,40.8v5.26s-56.64.13-56.64.13c2.8,9.48,11.13,15.89,21.64,15.87,6.71-.01,12.7-2.22,16.78-6.17l13.17,11.94c-9.33,7.61-18.66,10.99-30.78,11.02ZM394.2,52.43l37.23-.08c-2.5-9.05-9.82-15.31-18.57-15.29-9.2.02-16.19,6.02-18.65,15.37Z"/>
    <path class="cls-1" d="M523.93,75.35c8.92,5.82,16.66,8.58,24.69,8.56,8.91-.02,14.74-3.24,14.73-8.06,0-3.94-2.93-6.13-9.51-7.13l-14.61-2.16c-15.04-2.3-23.09-9.73-23.12-22-.03-14.75,12.21-24.12,31.63-24.16,11.09-.02,21.76,3.16,31.26,9.42l-9.61,12.87c-8.33-4.95-15.78-7.27-23.52-7.25-7.3.02-11.96,2.95-11.95,7.47,0,4.09,2.93,6.13,10.38,7.13l14.6,2.16c14.9,2.16,23.24,9.88,23.27,21.7.03,14.31-14.11,25.14-33.23,25.19-13.87.03-26.29-3.59-34.92-10.43l9.9-13.31Z"/>
  </g>
  <path class="cls-1" d="M460.66,21.89l19.83-.04.02,8.45c4.76-6.52,11.7-10.01,20.1-10.03,3.91.14,6.23.56,8.26,1.72l.04,17.37c-2.9-1.3-6.52-2.01-10.14-2-7.67.02-14.47,3.94-18.21,11.33l.11,49.12-19.83.04-.17-75.95Z"/>
  <g>
    <path class="cls-1" d="M89.41,133.02h5.44s9.25,22.65,9.25,22.65h-5.09s-2.31-5.95-2.31-5.95l-9.36.02-2.32,5.97h-4.89s9.28-22.69,9.28-22.69ZM95.27,145.97l-3.23-8.35-3.25,8.37h6.48Z"/>
    <path class="cls-1" d="M130.73,148.64c2.66,2.29,4.96,3.29,7.69,3.29s4.63-1.11,4.63-2.86c0-1.56-1.04-2.33-3.73-2.78l-4.51-.77c-3.89-.64-5.93-2.74-5.94-6.04,0-4.24,3.42-6.88,8.93-6.89,3.3,0,6.84,1.18,9.37,3.15l-2.52,3.5c-2.43-1.84-4.7-2.71-7.17-2.71s-4.14,1.01-4.14,2.57c0,1.39.91,2.1,3.25,2.46l4.28.7c4.54.73,6.78,2.87,6.79,6.37,0,4.44-3.71,7.27-9.54,7.28-3.66,0-7.33-1.41-10.05-3.9l2.68-3.38Z"/>
    <path class="cls-1" d="M174.86,148.55c2.66,2.29,4.96,3.29,7.69,3.29s4.63-1.11,4.63-2.86c0-1.56-1.04-2.33-3.73-2.78l-4.51-.77c-3.89-.64-5.93-2.74-5.94-6.04,0-4.24,3.42-6.88,8.93-6.89,3.3,0,6.84,1.18,9.37,3.15l-2.52,3.5c-2.43-1.84-4.7-2.71-7.17-2.71s-4.14,1.01-4.14,2.57c0,1.39.91,2.1,3.25,2.46l4.28.7c4.54.73,6.78,2.87,6.79,6.37,0,4.44-3.71,7.27-9.54,7.28-3.66,0-7.33-1.41-10.05-3.9l2.68-3.38Z"/>
    <path class="cls-1" d="M229.06,155.75c-6.71.01-12-5.12-12.01-11.67s5.26-11.71,11.96-11.72,12.03,5.12,12.05,11.67-5.25,11.71-11.99,11.72ZM229.01,136.66c-4.05,0-7.15,3.19-7.14,7.4s3.13,7.38,7.18,7.37,7.19-3.22,7.18-7.4-3.13-7.38-7.21-7.37Z"/>
    <path class="cls-1" d="M285.06,148.37l3.08,3.04c-2.16,2.56-5.72,4.19-9.29,4.2-6.84.02-12.1-5.06-12.11-11.64s5.26-11.71,12.06-11.72c3.66,0,7.33,1.64,9.44,4.22l-3.17,3.15c-1.62-2-3.83-3.07-6.26-3.06-4.11,0-7.25,3.19-7.24,7.4s3.19,7.32,7.4,7.31c2.4,0,4.5-1.01,6.08-2.9Z"/>
    <path class="cls-1" d="M314.19,132.52h4.7s.05,22.67.05,22.67h-4.7s-.05-22.67-.05-22.67Z"/>
    <path class="cls-1" d="M353.5,132.44h5.44s9.25,22.65,9.25,22.65h-5.09s-2.31-5.95-2.31-5.95l-9.36.02-2.32,5.97h-4.89s9.28-22.69,9.28-22.69ZM359.36,145.38l-3.23-8.35-3.25,8.37h6.48Z"/>
    <path class="cls-1" d="M387.49,132.36l19.96-.04v4.15s-7.6.02-7.6.02l.04,18.53h-4.7s-.04-18.52-.04-18.52l-7.65.02v-4.15Z"/>
    <path class="cls-1" d="M433.41,132.26l17.43-.04v4.08s-12.72.03-12.72.03v5.18s8.4-.02,8.4-.02v3.95s-8.38.02-8.38.02v5.38s12.87-.03,12.87-.03v4.08s-17.55.04-17.55.04l-.05-22.68Z"/>
    <path class="cls-1" d="M478.42,147.87c2.66,2.29,4.96,3.29,7.69,3.29s4.63-1.11,4.63-2.86c0-1.56-1.04-2.33-3.73-2.78l-4.51-.77c-3.89-.64-5.93-2.74-5.94-6.04,0-4.24,3.42-6.88,8.93-6.89,3.3,0,6.84,1.18,9.37,3.15l-2.52,3.5c-2.43-1.84-4.7-2.71-7.17-2.71s-4.14,1.01-4.14,2.57c0,1.39.91,2.1,3.25,2.46l4.28.7c4.54.73,6.78,2.87,6.79,6.37,0,4.44-3.71,7.27-9.54,7.28-3.66,0-7.33-1.41-10.05-3.9l2.68-3.38Z"/>
  </g>
</svg>